# xmcd
#
# Track frame offsets: 
#        150
#        14758
#        35494
#        47853
#        74479
#        89212
#        107603
#        127186
#        143703
#        159611
#        175774
#        190716
#
# Disc length: 2707 seconds
#
# Revision: 0
# Processed by: cddbd v1.5.2PL0 Copyright (c) Steve Scherf et al.
# Submitted via: ExactAudioCopyFreeDBPlugin 1.0
#
DISCID=b10a910c
DTITLE=Jack Vreeswijk - Sjunger Vreeswijk
DYEAR=2009
DGENRE=Folk
TTITLE0=Telegram För Lucidor
TTITLE1=Elisabeth
TTITLE2=Fåglar
TTITLE3=Sjuttonde Balladen
TTITLE4=Tidens Tand
TTITLE5=Jag Och Bosse Liden
TTITLE6=Getinghonung Provencale
TTITLE7=Grimasch Om Morgonen
TTITLE8=Gull Ar Död
TTITLE9=Morgon
TTITLE10=Telegram För Fullmånen
TTITLE11=Morgon Efter Regn
EXTD=
EXTT0=
EXTT1=
EXTT2=
EXTT3=
EXTT4=
EXTT5=
EXTT6=
EXTT7=
EXTT8=
EXTT9=
EXTT10=
EXTT11=
PLAYORDER=
